<svg width="24" height="25" viewBox="0 0 24 25" fill="none" xmlns="http://www.w3.org/2000/svg">
<path opacity="0.5" d="M6.53998 5.25H5.03998C5.12998 6.57 5.37998 7.83 5.78998 9.04L6.98998 7.83C6.74998 7 6.59998 6.13 6.53998 5.25ZM15.2 18.46C16.41 18.87 17.68 19.13 19 19.22V17.72C18.12 17.65 17.25 17.5 16.4 17.27L15.2 18.46Z" fill="#68A7F8"/>
<path d="M15 12.25H17C17 9.49 14.76 7.25 12 7.25V9.25C13.66 9.25 15 10.59 15 12.25ZM19 12.25H21C21 7.28 16.97 3.25 12 3.25V5.25C15.87 5.25 19 8.38 19 12.25ZM20 15.75C18.75 15.75 17.55 15.55 16.43 15.18C16.33 15.15 16.22 15.13 16.12 15.13C15.86 15.13 15.61 15.23 15.41 15.42L13.21 17.62C10.38 16.18 8.06 13.87 6.62 11.03L8.82 8.82C9.1 8.56 9.18 8.17 9.07 7.82C8.7 6.7 8.5 5.5 8.5 4.25C8.5 3.7 8.05 3.25 7.5 3.25H4C3.45 3.25 3 3.7 3 4.25C3 13.64 10.61 21.25 20 21.25C20.55 21.25 21 20.8 21 20.25V16.75C21 16.2 20.55 15.75 20 15.75ZM5.03 5.25H6.53C6.6 6.13 6.75 7 6.98 7.83L5.78 9.04C5.38 7.83 5.12 6.57 5.03 5.25ZM19 19.22C17.68 19.13 16.4 18.87 15.2 18.46L16.4 17.26C17.25 17.5 18.12 17.65 19 17.71V19.22Z" fill="#363636"/>
</svg>
